<svg xmlns="http://www.w3.org/2000/svg" xmlns:xlink="http://www.w3.org/1999/xlink" width="500" zoomAndPan="magnify" viewBox="0 0 375 374.999991" height="500" preserveAspectRatio="xMidYMid meet" version="1.2"><defs><clipPath id="601f40c681"><path d="M 0.0625 17.386719 L 375 17.386719 L 375 357.886719 L 0.0625 357.886719 Z M 0.0625 17.386719 "/></clipPath><clipPath id="25e346db42"><path d="M 232.121094 107.121094 L 302.292969 107.121094 L 302.292969 184.414062 L 232.121094 184.414062 Z M 232.121094 107.121094 "/></clipPath></defs><g id="fbd03be37d"><g clip-rule="nonzero" clip-path="url(#601f40c681)"><path style=" stroke:none;fill-rule:evenodd;fill:#1a1a1a;fill-opacity:1;" d="M 111.164062 129.664062 C 111.46875 129.132812 111.816406 128.644531 112.203125 128.199219 C 110.980469 113.0625 108.0625 97.753906 103.15625 82.667969 C 100.167969 73.480469 96.4375 64.375 91.890625 55.441406 C 87.976562 73.796875 81.292969 91.175781 72.109375 107.097656 C 62.941406 122.992188 51.273438 137.464844 37.382812 150.007812 C 48.230469 149.363281 58.765625 147.742188 68.96875 145.34375 C 83.503906 141.921875 97.378906 136.941406 110.535156 130.949219 C 110.71875 130.511719 110.929688 130.082031 111.164062 129.664062 M 130.238281 117.191406 L 176.207031 90.652344 L 236.925781 55.554688 C 239.878906 53.460938 243.898438 53.136719 247.246094 55.074219 L 308.738281 90.617188 L 370.175781 126.175781 L 370.226562 126.210938 L 370.289062 126.246094 L 370.359375 126.28125 L 370.425781 126.324219 L 370.488281 126.359375 L 370.550781 126.402344 L 370.628906 126.453125 L 370.679688 126.480469 L 370.742188 126.523438 L 370.820312 126.566406 L 370.863281 126.601562 L 370.925781 126.644531 L 370.984375 126.691406 L 371.003906 126.699219 L 371.046875 126.734375 L 371.105469 126.777344 L 371.230469 126.863281 L 371.296875 126.910156 L 371.359375 126.953125 L 371.378906 126.96875 L 371.410156 127.003906 L 371.472656 127.046875 L 371.535156 127.101562 L 371.558594 127.117188 L 371.59375 127.144531 L 371.65625 127.195312 L 371.71875 127.25 L 371.742188 127.265625 L 371.769531 127.292969 L 371.832031 127.34375 L 371.882812 127.398438 L 371.910156 127.421875 L 371.933594 127.449219 L 371.988281 127.5 L 372.039062 127.554688 L 372.074219 127.578125 L 372.101562 127.605469 L 372.160156 127.660156 L 372.214844 127.710938 L 372.25 127.746094 L 372.273438 127.773438 L 372.328125 127.824219 L 372.386719 127.886719 L 372.421875 127.921875 L 372.441406 127.945312 L 372.492188 128.007812 L 372.578125 128.101562 L 372.597656 128.121094 L 372.648438 128.183594 L 372.703125 128.242188 L 372.738281 128.285156 L 372.753906 128.304688 L 372.804688 128.363281 L 372.859375 128.425781 L 372.894531 128.46875 L 372.902344 128.488281 L 372.953125 128.546875 L 372.996094 128.609375 L 373.050781 128.679688 L 373.09375 128.742188 L 373.144531 128.800781 L 373.191406 128.863281 L 373.242188 128.921875 L 373.328125 129.054688 L 373.417969 129.183594 L 373.675781 129.605469 L 373.722656 129.671875 L 373.757812 129.753906 L 373.800781 129.832031 L 373.84375 129.902344 L 373.886719 129.96875 L 373.921875 130.050781 L 373.957031 130.128906 L 373.992188 130.195312 L 374.027344 130.265625 L 374.0625 130.34375 L 374.097656 130.425781 L 374.128906 130.492188 L 374.148438 130.546875 L 374.15625 130.574219 L 374.191406 130.652344 L 374.21875 130.710938 L 374.234375 130.765625 L 374.242188 130.789062 L 374.277344 130.867188 L 374.304688 130.949219 L 374.324219 130.992188 L 374.332031 131.027344 L 374.367188 131.105469 L 374.410156 131.21875 L 374.417969 131.253906 L 374.445312 131.332031 L 374.480469 131.4375 L 374.496094 131.480469 L 374.523438 131.558594 L 374.539062 131.636719 L 374.550781 131.664062 L 374.566406 131.714844 L 374.617188 131.890625 L 374.652344 131.933594 L 374.671875 132.019531 L 374.695312 132.117188 L 374.714844 132.175781 L 374.730469 132.257812 L 374.757812 132.34375 L 374.785156 132.492188 L 374.800781 132.578125 L 374.820312 132.648438 L 374.828125 132.71875 L 374.84375 132.796875 L 374.855469 132.875 L 374.878906 133.109375 L 374.890625 133.191406 L 374.90625 133.347656 L 374.90625 133.425781 L 374.921875 133.582031 L 374.933594 133.660156 L 374.933594 133.738281 L 374.941406 133.828125 L 374.949219 133.90625 L 374.949219 133.984375 L 374.957031 134.0625 L 374.957031 134.601562 L 375.003906 276.640625 C 375.003906 280.234375 373.023438 283.367188 370.097656 284.996094 L 308.722656 320.476562 L 308.21875 320.746094 L 248.003906 355.558594 C 245.046875 357.652344 241.03125 357.964844 237.683594 356.035156 L 176.179688 320.484375 L 114.683594 284.9375 L 114.703125 284.902344 C 111.84375 283.25 109.9375 280.164062 109.945312 276.621094 L 109.945312 206.132812 L 109.925781 205.554688 L 109.925781 152.035156 C 98.242188 156.875 86.058594 160.949219 73.378906 163.933594 C 53.164062 168.679688 31.742188 170.675781 9.210938 168.652344 C 3.964844 168.171875 0.09375 163.523438 0.574219 158.261719 C 0.871094 155.042969 2.734375 152.328125 5.339844 150.839844 C 26.382812 136.855469 43.402344 118.601562 55.566406 97.515625 C 67.828125 76.257812 75.121094 52.160156 76.613281 26.695312 C 76.933594 21.433594 81.441406 17.429688 86.695312 17.753906 C 89.710938 17.925781 92.316406 19.496094 93.917969 21.792969 L 93.953125 21.773438 C 106.242188 39.328125 115.207031 57.867188 121.351562 76.753906 C 125.664062 90.117188 128.582031 103.667969 130.238281 117.191406 Z M 232.910156 276.664062 L 232.910156 211.09375 L 128.992188 151.03125 L 128.992188 205.546875 L 128.976562 206.15625 L 128.976562 271.109375 L 185.738281 303.917969 L 232.9375 331.199219 Z M 185.722656 107.164062 L 242.40625 74.378906 L 185.730469 107.148438 Z M 327.703125 232.320312 C 324.539062 237.816406 326.410156 244.839844 331.902344 248.007812 C 337.382812 251.171875 344.40625 249.296875 347.570312 243.800781 C 350.742188 238.304688 348.859375 231.28125 343.371094 228.117188 C 337.886719 224.949219 330.875 226.824219 327.703125 232.320312 Z M 327.703125 232.320312 "/></g><g clip-rule="nonzero" clip-path="url(#25e346db42)"><path style=" stroke:none;fill-rule:nonzero;fill:#1a1a1a;fill-opacity:1;" d="M 232.121094 107.121094 L 302.292969 107.121094 L 302.292969 184.421875 L 232.121094 184.421875 Z M 232.121094 107.121094 "/></g></g></svg>